<mxfile host="app.diagrams.net" modified="2023-04-10T10:42:15.960Z" agent="Mozilla/5.0 (Windows NT 10.0; Win64; x64) AppleWebKit/537.36 (KHTML, like Gecko) Chrome/111.0.0.0 Safari/537.36" etag="DiMUFzcrYMIjAmGLtJLd" version="21.1.5" type="device">
  <diagram id="C5RBs43oDa-KdzZeNtuy" name="Page-1">
    <mxGraphModel dx="2150" dy="915" grid="1" gridSize="10" guides="1" tooltips="1" connect="1" arrows="1" fold="1" page="1" pageScale="1" pageWidth="827" pageHeight="1169" math="0" shadow="0">
      <root>
        <mxCell id="WIyWlLk6GJQsqaUBKTNV-0" />
        <mxCell id="WIyWlLk6GJQsqaUBKTNV-1" parent="WIyWlLk6GJQsqaUBKTNV-0" />
        <mxCell id="f6WcW9jextzulrMWgwvd-7" style="edgeStyle=orthogonalEdgeStyle;rounded=0;orthogonalLoop=1;jettySize=auto;html=1;entryX=0.5;entryY=0;entryDx=0;entryDy=0;" edge="1" parent="WIyWlLk6GJQsqaUBKTNV-1" source="f6WcW9jextzulrMWgwvd-0">
          <mxGeometry relative="1" as="geometry">
            <mxPoint x="640" y="270" as="targetPoint" />
          </mxGeometry>
        </mxCell>
        <mxCell id="f6WcW9jextzulrMWgwvd-0" value="&lt;br&gt;string? str = Console.ReadLine();&lt;br&gt;var array = str.Split(&quot; &quot;);&lt;br&gt;string[] arrayStr = new string[array.Length];&lt;br&gt;i = 0;" style="rounded=0;whiteSpace=wrap;html=1;" vertex="1" parent="WIyWlLk6GJQsqaUBKTNV-1">
          <mxGeometry x="520" y="140" width="240" height="90" as="geometry" />
        </mxCell>
        <mxCell id="f6WcW9jextzulrMWgwvd-1" style="edgeStyle=orthogonalEdgeStyle;rounded=0;orthogonalLoop=1;jettySize=auto;html=1;entryX=0.5;entryY=0;entryDx=0;entryDy=0;" edge="1" parent="WIyWlLk6GJQsqaUBKTNV-1" source="f6WcW9jextzulrMWgwvd-2" target="f6WcW9jextzulrMWgwvd-0">
          <mxGeometry relative="1" as="geometry" />
        </mxCell>
        <mxCell id="f6WcW9jextzulrMWgwvd-2" value="Start" style="ellipse;whiteSpace=wrap;html=1;" vertex="1" parent="WIyWlLk6GJQsqaUBKTNV-1">
          <mxGeometry x="580" y="20" width="120" height="80" as="geometry" />
        </mxCell>
        <mxCell id="f6WcW9jextzulrMWgwvd-10" style="edgeStyle=orthogonalEdgeStyle;rounded=0;orthogonalLoop=1;jettySize=auto;html=1;entryX=0.5;entryY=0;entryDx=0;entryDy=0;" edge="1" parent="WIyWlLk6GJQsqaUBKTNV-1" source="f6WcW9jextzulrMWgwvd-8" target="f6WcW9jextzulrMWgwvd-9">
          <mxGeometry relative="1" as="geometry" />
        </mxCell>
        <mxCell id="f6WcW9jextzulrMWgwvd-79" value="yes" style="edgeLabel;html=1;align=center;verticalAlign=middle;resizable=0;points=[];" vertex="1" connectable="0" parent="f6WcW9jextzulrMWgwvd-10">
          <mxGeometry x="-0.3015" relative="1" as="geometry">
            <mxPoint x="10" y="2" as="offset" />
          </mxGeometry>
        </mxCell>
        <mxCell id="f6WcW9jextzulrMWgwvd-15" value="" style="edgeStyle=orthogonalEdgeStyle;rounded=0;orthogonalLoop=1;jettySize=auto;html=1;" edge="1" parent="WIyWlLk6GJQsqaUBKTNV-1" source="f6WcW9jextzulrMWgwvd-8" target="f6WcW9jextzulrMWgwvd-14">
          <mxGeometry relative="1" as="geometry" />
        </mxCell>
        <mxCell id="f6WcW9jextzulrMWgwvd-80" value="no" style="edgeLabel;html=1;align=center;verticalAlign=middle;resizable=0;points=[];" vertex="1" connectable="0" parent="f6WcW9jextzulrMWgwvd-15">
          <mxGeometry x="-0.0718" relative="1" as="geometry">
            <mxPoint y="10" as="offset" />
          </mxGeometry>
        </mxCell>
        <mxCell id="f6WcW9jextzulrMWgwvd-8" value="i &amp;lt; array.Length;&amp;nbsp;" style="rhombus;whiteSpace=wrap;html=1;" vertex="1" parent="WIyWlLk6GJQsqaUBKTNV-1">
          <mxGeometry x="535" y="270" width="210" height="80" as="geometry" />
        </mxCell>
        <mxCell id="f6WcW9jextzulrMWgwvd-11" style="edgeStyle=orthogonalEdgeStyle;rounded=0;orthogonalLoop=1;jettySize=auto;html=1;entryX=0;entryY=0.5;entryDx=0;entryDy=0;exitX=0;exitY=0.5;exitDx=0;exitDy=0;" edge="1" parent="WIyWlLk6GJQsqaUBKTNV-1" source="f6WcW9jextzulrMWgwvd-12" target="f6WcW9jextzulrMWgwvd-8">
          <mxGeometry relative="1" as="geometry">
            <mxPoint x="480" y="360" as="targetPoint" />
            <Array as="points">
              <mxPoint x="470" y="520" />
              <mxPoint x="470" y="310" />
            </Array>
          </mxGeometry>
        </mxCell>
        <mxCell id="f6WcW9jextzulrMWgwvd-13" style="edgeStyle=orthogonalEdgeStyle;rounded=0;orthogonalLoop=1;jettySize=auto;html=1;" edge="1" parent="WIyWlLk6GJQsqaUBKTNV-1" source="f6WcW9jextzulrMWgwvd-9" target="f6WcW9jextzulrMWgwvd-12">
          <mxGeometry relative="1" as="geometry" />
        </mxCell>
        <mxCell id="f6WcW9jextzulrMWgwvd-9" value="arrayStr[i] = Convert.ToString(array[i]);" style="rounded=0;whiteSpace=wrap;html=1;" vertex="1" parent="WIyWlLk6GJQsqaUBKTNV-1">
          <mxGeometry x="520" y="400" width="240" height="60" as="geometry" />
        </mxCell>
        <mxCell id="f6WcW9jextzulrMWgwvd-12" value="i = i + 1;" style="rounded=0;whiteSpace=wrap;html=1;" vertex="1" parent="WIyWlLk6GJQsqaUBKTNV-1">
          <mxGeometry x="600" y="490" width="80" height="60" as="geometry" />
        </mxCell>
        <mxCell id="f6WcW9jextzulrMWgwvd-25" value="" style="edgeStyle=orthogonalEdgeStyle;rounded=0;orthogonalLoop=1;jettySize=auto;html=1;" edge="1" parent="WIyWlLk6GJQsqaUBKTNV-1" source="f6WcW9jextzulrMWgwvd-14" target="f6WcW9jextzulrMWgwvd-24">
          <mxGeometry relative="1" as="geometry" />
        </mxCell>
        <mxCell id="f6WcW9jextzulrMWgwvd-14" value="i = 0;&amp;nbsp;" style="whiteSpace=wrap;html=1;" vertex="1" parent="WIyWlLk6GJQsqaUBKTNV-1">
          <mxGeometry x="978.12" y="285" width="67.5" height="50" as="geometry" />
        </mxCell>
        <mxCell id="f6WcW9jextzulrMWgwvd-27" value="" style="edgeStyle=orthogonalEdgeStyle;rounded=0;orthogonalLoop=1;jettySize=auto;html=1;" edge="1" parent="WIyWlLk6GJQsqaUBKTNV-1" source="f6WcW9jextzulrMWgwvd-24" target="f6WcW9jextzulrMWgwvd-26">
          <mxGeometry relative="1" as="geometry" />
        </mxCell>
        <mxCell id="f6WcW9jextzulrMWgwvd-83" value="yes" style="edgeLabel;html=1;align=center;verticalAlign=middle;resizable=0;points=[];" vertex="1" connectable="0" parent="f6WcW9jextzulrMWgwvd-27">
          <mxGeometry x="-0.2633" relative="1" as="geometry">
            <mxPoint x="18" as="offset" />
          </mxGeometry>
        </mxCell>
        <mxCell id="f6WcW9jextzulrMWgwvd-50" style="edgeStyle=orthogonalEdgeStyle;rounded=0;orthogonalLoop=1;jettySize=auto;html=1;entryX=0;entryY=0.5;entryDx=0;entryDy=0;" edge="1" parent="WIyWlLk6GJQsqaUBKTNV-1" source="f6WcW9jextzulrMWgwvd-24" target="f6WcW9jextzulrMWgwvd-33">
          <mxGeometry relative="1" as="geometry">
            <mxPoint x="1180" y="250" as="targetPoint" />
            <Array as="points">
              <mxPoint x="1130" y="410" />
              <mxPoint x="1130" y="185" />
            </Array>
          </mxGeometry>
        </mxCell>
        <mxCell id="f6WcW9jextzulrMWgwvd-82" value="no" style="edgeLabel;html=1;align=center;verticalAlign=middle;resizable=0;points=[];" vertex="1" connectable="0" parent="f6WcW9jextzulrMWgwvd-50">
          <mxGeometry x="-0.3814" y="1" relative="1" as="geometry">
            <mxPoint x="11" y="-26" as="offset" />
          </mxGeometry>
        </mxCell>
        <mxCell id="f6WcW9jextzulrMWgwvd-24" value="i &amp;lt; arrayStr.Length;" style="rhombus;whiteSpace=wrap;html=1;" vertex="1" parent="WIyWlLk6GJQsqaUBKTNV-1">
          <mxGeometry x="895" y="370" width="233.75" height="80" as="geometry" />
        </mxCell>
        <mxCell id="f6WcW9jextzulrMWgwvd-29" style="edgeStyle=orthogonalEdgeStyle;rounded=0;orthogonalLoop=1;jettySize=auto;html=1;entryX=0.5;entryY=0;entryDx=0;entryDy=0;" edge="1" parent="WIyWlLk6GJQsqaUBKTNV-1" source="f6WcW9jextzulrMWgwvd-26" target="f6WcW9jextzulrMWgwvd-28">
          <mxGeometry relative="1" as="geometry" />
        </mxCell>
        <mxCell id="f6WcW9jextzulrMWgwvd-26" value="Console.Write(&quot; &quot; +arrayStr[i]);" style="whiteSpace=wrap;html=1;" vertex="1" parent="WIyWlLk6GJQsqaUBKTNV-1">
          <mxGeometry x="925.78" y="490" width="172.19" height="60" as="geometry" />
        </mxCell>
        <mxCell id="f6WcW9jextzulrMWgwvd-30" style="edgeStyle=orthogonalEdgeStyle;rounded=0;orthogonalLoop=1;jettySize=auto;html=1;entryX=0;entryY=0.5;entryDx=0;entryDy=0;" edge="1" parent="WIyWlLk6GJQsqaUBKTNV-1" source="f6WcW9jextzulrMWgwvd-28" target="f6WcW9jextzulrMWgwvd-24">
          <mxGeometry relative="1" as="geometry">
            <Array as="points">
              <mxPoint x="875" y="620" />
              <mxPoint x="875" y="410" />
            </Array>
          </mxGeometry>
        </mxCell>
        <mxCell id="f6WcW9jextzulrMWgwvd-28" value="i = i + 1;" style="rounded=0;whiteSpace=wrap;html=1;" vertex="1" parent="WIyWlLk6GJQsqaUBKTNV-1">
          <mxGeometry x="971.87" y="590" width="80" height="60" as="geometry" />
        </mxCell>
        <mxCell id="f6WcW9jextzulrMWgwvd-57" style="edgeStyle=orthogonalEdgeStyle;rounded=0;orthogonalLoop=1;jettySize=auto;html=1;entryX=0.5;entryY=0;entryDx=0;entryDy=0;" edge="1" parent="WIyWlLk6GJQsqaUBKTNV-1" source="f6WcW9jextzulrMWgwvd-33" target="f6WcW9jextzulrMWgwvd-56">
          <mxGeometry relative="1" as="geometry" />
        </mxCell>
        <mxCell id="f6WcW9jextzulrMWgwvd-33" value="string[] findSomeNumb = Array.FindAll(arrayStr, item =&amp;gt; item.Length &amp;lt;= t );&lt;br&gt;int t = 3;&lt;br&gt;i = 0;&lt;br&gt;j = 0;" style="rounded=0;whiteSpace=wrap;html=1;" vertex="1" parent="WIyWlLk6GJQsqaUBKTNV-1">
          <mxGeometry x="1180" y="150" width="443" height="70" as="geometry" />
        </mxCell>
        <mxCell id="f6WcW9jextzulrMWgwvd-42" value="" style="edgeStyle=orthogonalEdgeStyle;rounded=0;orthogonalLoop=1;jettySize=auto;html=1;" edge="1" parent="WIyWlLk6GJQsqaUBKTNV-1" source="f6WcW9jextzulrMWgwvd-37" target="f6WcW9jextzulrMWgwvd-41">
          <mxGeometry relative="1" as="geometry" />
        </mxCell>
        <mxCell id="f6WcW9jextzulrMWgwvd-47" style="edgeStyle=orthogonalEdgeStyle;rounded=0;orthogonalLoop=1;jettySize=auto;html=1;entryX=1;entryY=0.5;entryDx=0;entryDy=0;" edge="1" parent="WIyWlLk6GJQsqaUBKTNV-1" source="f6WcW9jextzulrMWgwvd-37" target="f6WcW9jextzulrMWgwvd-44">
          <mxGeometry relative="1" as="geometry">
            <mxPoint x="1581" y="697" as="targetPoint" />
            <Array as="points">
              <mxPoint x="1571" y="447" />
              <mxPoint x="1571" y="742" />
            </Array>
          </mxGeometry>
        </mxCell>
        <mxCell id="f6WcW9jextzulrMWgwvd-85" value="no" style="edgeLabel;html=1;align=center;verticalAlign=middle;resizable=0;points=[];" vertex="1" connectable="0" parent="f6WcW9jextzulrMWgwvd-47">
          <mxGeometry x="-0.3586" relative="1" as="geometry">
            <mxPoint x="9" y="56" as="offset" />
          </mxGeometry>
        </mxCell>
        <mxCell id="f6WcW9jextzulrMWgwvd-37" value="arrayStr[i].Length &amp;lt;= t;" style="rhombus;whiteSpace=wrap;html=1;rounded=0;" vertex="1" parent="WIyWlLk6GJQsqaUBKTNV-1">
          <mxGeometry x="1303.25" y="407" width="198.5" height="80" as="geometry" />
        </mxCell>
        <mxCell id="f6WcW9jextzulrMWgwvd-54" style="edgeStyle=orthogonalEdgeStyle;rounded=0;orthogonalLoop=1;jettySize=auto;html=1;" edge="1" parent="WIyWlLk6GJQsqaUBKTNV-1" source="f6WcW9jextzulrMWgwvd-41" target="f6WcW9jextzulrMWgwvd-53">
          <mxGeometry relative="1" as="geometry" />
        </mxCell>
        <mxCell id="f6WcW9jextzulrMWgwvd-41" value="findSomeNumb[j] = arrayStr[i]" style="whiteSpace=wrap;html=1;rounded=0;" vertex="1" parent="WIyWlLk6GJQsqaUBKTNV-1">
          <mxGeometry x="1293.25" y="527" width="218.5" height="60" as="geometry" />
        </mxCell>
        <mxCell id="f6WcW9jextzulrMWgwvd-46" style="edgeStyle=orthogonalEdgeStyle;rounded=0;orthogonalLoop=1;jettySize=auto;html=1;entryX=0;entryY=0.5;entryDx=0;entryDy=0;" edge="1" parent="WIyWlLk6GJQsqaUBKTNV-1" source="f6WcW9jextzulrMWgwvd-44" target="f6WcW9jextzulrMWgwvd-56">
          <mxGeometry relative="1" as="geometry">
            <Array as="points">
              <mxPoint x="1241" y="742" />
              <mxPoint x="1241" y="325" />
            </Array>
          </mxGeometry>
        </mxCell>
        <mxCell id="f6WcW9jextzulrMWgwvd-44" value="i = i + 1;" style="whiteSpace=wrap;html=1;rounded=0;" vertex="1" parent="WIyWlLk6GJQsqaUBKTNV-1">
          <mxGeometry x="1342.5" y="722" width="120" height="40" as="geometry" />
        </mxCell>
        <mxCell id="f6WcW9jextzulrMWgwvd-55" style="edgeStyle=orthogonalEdgeStyle;rounded=0;orthogonalLoop=1;jettySize=auto;html=1;entryX=0.5;entryY=0;entryDx=0;entryDy=0;exitX=0.5;exitY=1;exitDx=0;exitDy=0;" edge="1" parent="WIyWlLk6GJQsqaUBKTNV-1" source="f6WcW9jextzulrMWgwvd-53" target="f6WcW9jextzulrMWgwvd-44">
          <mxGeometry relative="1" as="geometry">
            <Array as="points">
              <mxPoint x="1401" y="697" />
              <mxPoint x="1403" y="697" />
            </Array>
          </mxGeometry>
        </mxCell>
        <mxCell id="f6WcW9jextzulrMWgwvd-53" value="j = j + 1;" style="whiteSpace=wrap;html=1;rounded=0;" vertex="1" parent="WIyWlLk6GJQsqaUBKTNV-1">
          <mxGeometry x="1344.75" y="637" width="117.75" height="40" as="geometry" />
        </mxCell>
        <mxCell id="f6WcW9jextzulrMWgwvd-58" style="edgeStyle=orthogonalEdgeStyle;rounded=0;orthogonalLoop=1;jettySize=auto;html=1;entryX=0.5;entryY=0;entryDx=0;entryDy=0;" edge="1" parent="WIyWlLk6GJQsqaUBKTNV-1" source="f6WcW9jextzulrMWgwvd-56" target="f6WcW9jextzulrMWgwvd-37">
          <mxGeometry relative="1" as="geometry" />
        </mxCell>
        <mxCell id="f6WcW9jextzulrMWgwvd-84" value="yes" style="edgeLabel;html=1;align=center;verticalAlign=middle;resizable=0;points=[];" vertex="1" connectable="0" parent="f6WcW9jextzulrMWgwvd-58">
          <mxGeometry x="-0.2582" y="-1" relative="1" as="geometry">
            <mxPoint x="19" as="offset" />
          </mxGeometry>
        </mxCell>
        <mxCell id="f6WcW9jextzulrMWgwvd-67" style="edgeStyle=orthogonalEdgeStyle;rounded=0;orthogonalLoop=1;jettySize=auto;html=1;entryX=0;entryY=0.5;entryDx=0;entryDy=0;" edge="1" parent="WIyWlLk6GJQsqaUBKTNV-1" source="f6WcW9jextzulrMWgwvd-56" target="f6WcW9jextzulrMWgwvd-60">
          <mxGeometry relative="1" as="geometry" />
        </mxCell>
        <mxCell id="f6WcW9jextzulrMWgwvd-86" value="no" style="edgeLabel;html=1;align=center;verticalAlign=middle;resizable=0;points=[];" vertex="1" connectable="0" parent="f6WcW9jextzulrMWgwvd-67">
          <mxGeometry x="-0.0986" y="-1" relative="1" as="geometry">
            <mxPoint x="1" y="9" as="offset" />
          </mxGeometry>
        </mxCell>
        <mxCell id="f6WcW9jextzulrMWgwvd-56" value="i &amp;lt; arrayStr.Length;" style="rhombus;whiteSpace=wrap;html=1;" vertex="1" parent="WIyWlLk6GJQsqaUBKTNV-1">
          <mxGeometry x="1282.5" y="285" width="238" height="80" as="geometry" />
        </mxCell>
        <mxCell id="f6WcW9jextzulrMWgwvd-59" value="" style="edgeStyle=orthogonalEdgeStyle;rounded=0;orthogonalLoop=1;jettySize=auto;html=1;" edge="1" parent="WIyWlLk6GJQsqaUBKTNV-1" source="f6WcW9jextzulrMWgwvd-60" target="f6WcW9jextzulrMWgwvd-62">
          <mxGeometry relative="1" as="geometry" />
        </mxCell>
        <mxCell id="f6WcW9jextzulrMWgwvd-60" value="j = 0;&amp;nbsp;" style="whiteSpace=wrap;html=1;" vertex="1" parent="WIyWlLk6GJQsqaUBKTNV-1">
          <mxGeometry x="1773.06" y="300" width="67.5" height="50" as="geometry" />
        </mxCell>
        <mxCell id="f6WcW9jextzulrMWgwvd-61" value="" style="edgeStyle=orthogonalEdgeStyle;rounded=0;orthogonalLoop=1;jettySize=auto;html=1;" edge="1" parent="WIyWlLk6GJQsqaUBKTNV-1" source="f6WcW9jextzulrMWgwvd-62" target="f6WcW9jextzulrMWgwvd-64">
          <mxGeometry relative="1" as="geometry" />
        </mxCell>
        <mxCell id="f6WcW9jextzulrMWgwvd-88" value="yes" style="edgeLabel;html=1;align=center;verticalAlign=middle;resizable=0;points=[];" vertex="1" connectable="0" parent="f6WcW9jextzulrMWgwvd-61">
          <mxGeometry x="0.2686" relative="1" as="geometry">
            <mxPoint x="13" y="-9" as="offset" />
          </mxGeometry>
        </mxCell>
        <mxCell id="f6WcW9jextzulrMWgwvd-75" style="edgeStyle=orthogonalEdgeStyle;rounded=0;orthogonalLoop=1;jettySize=auto;html=1;entryX=0.002;entryY=0.377;entryDx=0;entryDy=0;entryPerimeter=0;" edge="1" parent="WIyWlLk6GJQsqaUBKTNV-1" source="f6WcW9jextzulrMWgwvd-62" target="f6WcW9jextzulrMWgwvd-76">
          <mxGeometry relative="1" as="geometry">
            <mxPoint x="2040" y="359.98695992349803" as="targetPoint" />
          </mxGeometry>
        </mxCell>
        <mxCell id="f6WcW9jextzulrMWgwvd-87" value="no" style="edgeLabel;html=1;align=center;verticalAlign=middle;resizable=0;points=[];" vertex="1" connectable="0" parent="f6WcW9jextzulrMWgwvd-75">
          <mxGeometry x="-0.2836" y="-3" relative="1" as="geometry">
            <mxPoint x="6" y="7" as="offset" />
          </mxGeometry>
        </mxCell>
        <mxCell id="f6WcW9jextzulrMWgwvd-62" value="j &amp;lt; findSomeNumb.Length;" style="rhombus;whiteSpace=wrap;html=1;" vertex="1" parent="WIyWlLk6GJQsqaUBKTNV-1">
          <mxGeometry x="1691.78" y="380" width="230.06" height="100" as="geometry" />
        </mxCell>
        <mxCell id="f6WcW9jextzulrMWgwvd-63" style="edgeStyle=orthogonalEdgeStyle;rounded=0;orthogonalLoop=1;jettySize=auto;html=1;entryX=0.5;entryY=0;entryDx=0;entryDy=0;" edge="1" parent="WIyWlLk6GJQsqaUBKTNV-1" source="f6WcW9jextzulrMWgwvd-64" target="f6WcW9jextzulrMWgwvd-66">
          <mxGeometry relative="1" as="geometry" />
        </mxCell>
        <mxCell id="f6WcW9jextzulrMWgwvd-64" value="Console.Write(&quot; &quot; +findSomeNumb[ j ]);" style="whiteSpace=wrap;html=1;" vertex="1" parent="WIyWlLk6GJQsqaUBKTNV-1">
          <mxGeometry x="1683.18" y="510" width="247.25" height="60" as="geometry" />
        </mxCell>
        <mxCell id="f6WcW9jextzulrMWgwvd-65" style="edgeStyle=orthogonalEdgeStyle;rounded=0;orthogonalLoop=1;jettySize=auto;html=1;entryX=0;entryY=0.5;entryDx=0;entryDy=0;" edge="1" parent="WIyWlLk6GJQsqaUBKTNV-1" source="f6WcW9jextzulrMWgwvd-66" target="f6WcW9jextzulrMWgwvd-62">
          <mxGeometry relative="1" as="geometry">
            <Array as="points">
              <mxPoint x="1670" y="635" />
              <mxPoint x="1670" y="430" />
            </Array>
          </mxGeometry>
        </mxCell>
        <mxCell id="f6WcW9jextzulrMWgwvd-66" value="j = j + 1;" style="rounded=0;whiteSpace=wrap;html=1;" vertex="1" parent="WIyWlLk6GJQsqaUBKTNV-1">
          <mxGeometry x="1766.81" y="605" width="80" height="60" as="geometry" />
        </mxCell>
        <mxCell id="f6WcW9jextzulrMWgwvd-90" style="edgeStyle=orthogonalEdgeStyle;rounded=0;orthogonalLoop=1;jettySize=auto;html=1;entryX=0;entryY=0.5;entryDx=0;entryDy=0;" edge="1" parent="WIyWlLk6GJQsqaUBKTNV-1" source="f6WcW9jextzulrMWgwvd-76" target="f6WcW9jextzulrMWgwvd-89">
          <mxGeometry relative="1" as="geometry" />
        </mxCell>
        <mxCell id="f6WcW9jextzulrMWgwvd-76" value="Вывод&lt;br&gt;string[] arrayStr&lt;br&gt;string[] findSomeNumb" style="shape=document;whiteSpace=wrap;html=1;boundedLbl=1;" vertex="1" parent="WIyWlLk6GJQsqaUBKTNV-1">
          <mxGeometry x="2010" y="400" width="180" height="80" as="geometry" />
        </mxCell>
        <mxCell id="f6WcW9jextzulrMWgwvd-89" value="Stop" style="ellipse;whiteSpace=wrap;html=1;" vertex="1" parent="WIyWlLk6GJQsqaUBKTNV-1">
          <mxGeometry x="2260" y="400" width="120" height="80" as="geometry" />
        </mxCell>
      </root>
    </mxGraphModel>
  </diagram>
</mxfile>
